<svg width="495" height="130" viewBox="0 0 495 130" xmlns="http://www.w3.org/2000/svg" role="img">
  <title>Smart-Mirror-SDK — IEEE interactive board with CV gesture recognition</title>
  <rect width="495" height="130" rx="6" fill="#22272e" stroke="#444c56" stroke-width="1"/>

  <svg x="16" y="16" width="16" height="16" viewBox="0 0 16 16" fill="#8a919a">
    <path d="M2 2.5A2.5 2.5 0 0 1 4.5 0h8.75a.75.75 0 0 1 .75.75v12.5a.75.75 0 0 1-.75.75h-2.5a.75.75 0 0 1 0-1.5h1.75v-2h-8a1 1 0 0 0-.714 1.7.75.75 0 1 1-1.072 1.05A2.495 2.495 0 0 1 2 11.5Zm10.5-1h-8a1 1 0 0 0-1 1v6.708A2.486 2.486 0 0 1 4.5 9h8V1.5Z"/>
  </svg>

  <text x="40" y="28" font-family="Segoe UI, system-ui, sans-serif" font-size="14" font-weight="600" fill="#6aa6f8">Smart-Mirror-SDK</text>

  <text x="16" y="60" font-family="Segoe UI, system-ui, sans-serif" font-size="12" fill="#8a919a">IEEE project · Interactive board driven by hand gestures and voice. CV</text>
  <text x="16" y="78" font-family="Segoe UI, system-ui, sans-serif" font-size="12" fill="#8a919a">module: MediaPipe landmark detection for swipes and dynamic gestures.</text>

  <circle cx="16" cy="110" r="6" fill="#3572A5"/>
  <text x="28" y="114" font-family="Segoe UI, system-ui, sans-serif" font-size="12" fill="#8a919a">Python</text>

  <text x="480" y="114" font-family="Segoe UI, system-ui, sans-serif" font-size="12" fill="#8a919a" text-anchor="end">SmartGlassCube</text>
</svg>
